<?xml version="1.0" encoding="UTF-8"?>
<svg width="400" height="300" viewBox="0 0 400 300" fill="none" xmlns="http://www.w3.org/2000/svg">
  <!-- Background -->
  <rect width="400" height="300" rx="10" fill="#1E293B"/>
  
  <!-- Laptop Illustration -->
  <path d="M150 180L250 180V140C250 135.582 246.418 132 242 132H158C153.582 132 150 135.582 150 140V180Z" fill="#475569"/>
  <rect x="155" y="137" width="90" height="38" fill="#0F172A"/>
  <path d="M140 180H260V190C260 195.523 255.523 200 250 200H150C144.477 200 140 195.523 140 190V180Z" fill="#475569"/>
  <rect x="190" y="185" width="20" height="5" rx="2.5" fill="#0F172A"/>
  
  <!-- Gaming Elements -->
  <rect x="165" y="147" width="20" height="20" fill="#4F46E5"/>
  <rect x="195" y="147" width="10" height="20" fill="#4F46E5"/>
  <rect x="215" y="147" width="20" height="10" fill="#4F46E5"/>
  <rect x="215" y="162" width="20" height="5" fill="#4F46E5"/>
  
  <!-- Controller -->
  <path d="M280 180C280 168.954 288.954 160 300 160C311.046 160 320 168.954 320 180V190C320 195.523 315.523 200 310 200H290C284.477 200 280 195.523 280 190V180Z" fill="#475569"/>
  <circle cx="290" cy="170" r="5" fill="#0F172A"/>
  <circle cx="310" cy="170" r="5" fill="#0F172A"/>
  <rect x="295" y="180" width="10" height="5" rx="2.5" fill="#0F172A"/>
  
  <!-- Price Tag -->
  <rect x="270" y="80" width="80" height="40" rx="5" fill="#4F46E5"/>
  <path d="M280 100L290 90L340 90L330 100L280 100Z" fill="#6366F1"/>
  <circle cx="290" cy="90" r="5" fill="#1E293B"/>
  <path d="M310 105L315 115M310 105C312 105 314 103 314 100C314 97 312 95 310 95C308 95 306 97 306 100C306 103 308 105 310 105Z" stroke="white" stroke-width="2" stroke-linecap="round"/>
  
  <!-- Savings Badge -->
  <circle cx="320" y="130" r="30" fill="#10B981"/>
  <path d="M310 130L315 135L330 120" stroke="white" stroke-width="3" stroke-linecap="round" stroke-linejoin="round"/>
  <text x="320" y="160" font-family="Arial" font-size="14" fill="white" text-anchor="middle">8% OFF</text>
</svg>
