<?xml version="1.0" encoding="UTF-8"?>
<svg width="32" height="32" viewBox="0 0 32 32" fill="none" xmlns="http://www.w3.org/2000/svg">
  <!-- Background shape with gradient -->
  <rect width="32" height="32" rx="6" fill="url(#paint0_linear)" />
  
  <!-- Deal tag shape -->
  <path d="M24 8H28C29.1046 8 30 8.89543 30 10V22C30 23.1046 29.1046 24 28 24H24L20 16L24 8Z" fill="#FFD700" />
  
  <!-- Price tag hole -->
  <circle cx="26" cy="12" r="1.5" fill="#FF6B6B" />
  
  <!-- Dollar sign on tag -->
  <path d="M26 16V19M26 16C27.1046 16 28 15.1046 28 14C28 12.8954 27.1046 12 26 12C24.8954 12 24 12.8954 24 14C24 15.1046 24.8954 16 26 16Z" stroke="#1A1A1A" stroke-width="1" stroke-linecap="round" />
  
  <!-- Text "B" -->
  <path d="M8 12H12C13.1046 12 14 11.1046 14 10C14 8.89543 13.1046 8 12 8H8V12Z" fill="#4F46E5" />
  <path d="M8 20H12C13.1046 20 14 19.1046 14 18C14 16.8954 13.1046 16 12 16H8V20Z" fill="#4F46E5" />
  <path d="M8 8V24" stroke="#4F46E5" stroke-width="2" stroke-linecap="round" />
  <path d="M8 12V16" stroke="#4F46E5" stroke-width="2" stroke-linecap="round" />
  
  <!-- Text "D" -->
  <path d="M16 8H20C21.1046 8 22 8.89543 22 10V22C22 23.1046 21.1046 24 20 24H16V8Z" fill="#FF6B6B" />
  <path d="M16 8V24" stroke="#FF6B6B" stroke-width="2" stroke-linecap="round" />
  
  <!-- Connecting line -->
  <path d="M14 16H20" stroke="#FFD700" stroke-width="1" stroke-dasharray="2 1" />
  
  <!-- Gradient definition -->
  <defs>
    <linearGradient id="paint0_linear" x1="0" y1="0" x2="32" y2="32" gradientUnits="userSpaceOnUse">
      <stop stop-color="#1E293B" />
      <stop offset="1" stop-color="#0F172A" />
    </linearGradient>
  </defs>
</svg>
