<?xml version="1.0" encoding="UTF-8"?>
<svg width="200" height="200" viewBox="0 0 200 200" fill="none" xmlns="http://www.w3.org/2000/svg">
  <!-- Background -->
  <rect width="200" height="200" rx="100" fill="#4F46E5"/>
  
  <!-- Store/Shop Icon -->
  <path d="M50 70V140C50 145.523 54.4772 150 60 150H140C145.523 150 150 145.523 150 140V70H50Z" fill="#F9FAFB"/>
  <path d="M60 50H140L150 70H50L60 50Z" fill="#F9FAFB"/>
  
  <!-- Store Windows -->
  <rect x="70" y="90" width="25" height="25" rx="2" fill="#4F46E5"/>
  <rect x="105" y="90" width="25" height="25" rx="2" fill="#4F46E5"/>
  <rect x="70" y="125" width="60" height="15" rx="2" fill="#4F46E5"/>
  
  <!-- Store Sign -->
  <rect x="85" y="60" width="30" height="10" rx="2" fill="#4F46E5"/>
  
  <!-- Verified Badge -->
  <circle cx="150" cy="50" r="15" fill="#10B981"/>
  <path d="M145 50L148 53L155 46" stroke="white" stroke-width="3" stroke-linecap="round" stroke-linejoin="round"/>
</svg>
